<svg id="圖層_1" data-name="圖層 1" xmlns="http://www.w3.org/2000/svg" viewBox="0 0 500 500"><defs><style>.cls-1{fill:#fff;}</style></defs><title>loadingWheel</title><path class="cls-1" d="M256,506A250,250,0,0,1,79.22,79.22,250,250,0,0,1,432.78,432.78,248.37,248.37,0,0,1,256,506Zm0-482A232,232,0,0,0,92,420,232,232,0,1,0,420,92,230.46,230.46,0,0,0,256,24Z" transform="translate(-6 -6)"/><path class="cls-1" d="M256,446C151.23,446,66,360.77,66,256S151.23,66,256,66s190,85.23,190,190S360.77,446,256,446Zm-57.47-27.74,6.27,2a172.37,172.37,0,0,0,102.4,0l6.27-2-28-67.6-5,1.28a99.3,99.3,0,0,1-48.87,0l-5-1.28ZM341.09,306.54a100,100,0,0,1-34.54,34.54l-4.46,2.66,28,67.59,5.82-3.07a172.14,172.14,0,0,0,72.37-72.37l3.07-5.82-67.59-28ZM100.66,330.08l3.07,5.82a172.14,172.14,0,0,0,72.37,72.37l5.82,3.07,28-67.59-4.46-2.66a100,100,0,0,1-34.54-34.54l-2.66-4.46ZM256,175a81,81,0,1,0,81,81A81.09,81.09,0,0,0,256,175Zm94.66,51.53,1.28,5a99.3,99.3,0,0,1,0,48.87l-1.28,5,67.6,28,2-6.27a172.37,172.37,0,0,0,0-102.4l-2-6.27ZM91.78,204.8a172.37,172.37,0,0,0,0,102.4l2,6.27,67.6-28-1.28-5a99.32,99.32,0,0,1,0-48.87l1.28-5-67.6-28Zm210.31-36.54,4.46,2.66a100,100,0,0,1,34.54,34.54l2.66,4.46,67.59-28-3.07-5.82a172.14,172.14,0,0,0-72.37-72.37l-5.82-3.07Zm-126-64.53a172.14,172.14,0,0,0-72.37,72.37l-3.07,5.82,67.59,28,2.66-4.46a100,100,0,0,1,34.54-34.54l4.46-2.66-28-67.59ZM256,157a99,99,0,0,1,24.43,3.05l5,1.28,28-67.6-6.27-2a172.37,172.37,0,0,0-102.4,0l-6.27,2,28,67.6,5-1.28A99,99,0,0,1,256,157Z" transform="translate(-6 -6)"/><path class="cls-1" d="M256,295a39,39,0,1,1,39-39A39,39,0,0,1,256,295Zm0-60a21,21,0,1,0,21,21A21,21,0,0,0,256,235Z" transform="translate(-6 -6)"/></svg>